<svg width="1280" height="720" xmlns="http://www.w3.org/2000/svg" xmlns:xlink="http://www.w3.org/1999/xlink" overflow="hidden"><defs><clipPath id="clip0"><rect x="0" y="0" width="1280" height="720"/></clipPath></defs><g clip-path="url(#clip0)"><rect x="0" y="0" width="1280" height="720" fill="#FFFFFF"/><rect x="147.5" y="36.5001" width="205" height="61" stroke="#2F528F" stroke-width="3" stroke-miterlimit="8" fill="none"/><text font-family="Calibri,Calibri_MSFontService,sans-serif" font-weight="400" font-size="24" transform="translate(152.829 72)">IMDB :  N = 460,724</text><rect x="277.5" y="246.5" width="206" height="98" stroke="#2F528F" stroke-width="3" stroke-miterlimit="8" fill="none"/><text font-family="Calibri,Calibri_MSFontService,sans-serif" font-weight="400" font-size="24" transform="translate(323.838 282)">N = 177,909<tspan font-size="24" x="-28.98" y="29">(age ≥ 60: 14,866)</tspan></text><path d="M0.333333-6.4954e-07 0.333425 47.2109-0.333241 47.2109-0.333333 6.4954e-07ZM4.00009 45.8776 0.000104987 53.8776-3.99991 45.8776Z" fill="#4472C4" transform="matrix(-1 0 0 1 380.5 343.5)"/><rect x="277.5" y="398.5" width="206" height="61" stroke="#2F528F" stroke-width="3" stroke-miterlimit="8" fill="none"/><text font-family="Calibri,Calibri_MSFontService,sans-serif" font-weight="400" font-size="24" transform="translate(321.297 435)">N = 174,195</text><path d="M380.5 211.167 555.711 211.167 555.711 211.833 380.5 211.833ZM554.378 207.5 562.378 211.5 554.378 215.5Z" fill="#4472C4"/><rect x="560.5" y="155.5" width="619" height="113" stroke="#2F528F" stroke-width="3" stroke-miterlimit="8" fill="none"/><text font-family="Calibri,Calibri_MSFontService,sans-serif" font-weight="400" font-size="24" transform="translate(575.959 364)">3,714 from age ≥ 60 <tspan font-size="24" x="200.247" y="0">subgroup rejected </tspan><tspan font-size="24" x="0" y="29">by manual post</tspan><tspan font-size="24" x="149.78" y="29">-</tspan><tspan font-size="24" x="157.113" y="29">extraction image QA</tspan><tspan font-size="24" x="-272.883" y="281">Train Inception</tspan>-<tspan font-size="24" x="-268.65" y="310">Resnet v1 CNN</tspan></text><path d="M380.5 486.167 555.712 486.167 555.712 486.833 380.5 486.833ZM554.378 482.5 562.378 486.5 554.378 490.5Z" fill="#4472C4"/><rect x="276.5" y="510.5" width="206" height="61" stroke="#2F528F" stroke-width="3" stroke-miterlimit="8" fill="none"/><text font-family="Calibri,Calibri_MSFontService,sans-serif" font-weight="400" font-size="24" transform="translate(333.874 548)">N = 56,304</text><path d="M0.333274-0.00628827 1.18767 45.2759 0.521118 45.2885-0.333274 0.00628827ZM4.82853 43.8737 0.980157 51.9477-3.17005 44.0246Z" fill="#4472C4" transform="matrix(-1 0 0 1 380.48 459.5)"/><rect x="561.5" y="443.5" width="597" height="140" stroke="#2F528F" stroke-width="3" stroke-miterlimit="8" fill="none"/><path d="M0.333316-0.00344035 0.754587 40.8112 0.0879562 40.8181-0.333316 0.00344035ZM4.4073 39.4401 0.490079 47.4809-3.59228 39.5227Z" fill="#4472C4" transform="matrix(-1 0 0 1 379.99 571.5)"/><rect x="412.5" y="36.5001" width="206" height="61" stroke="#2F528F" stroke-width="3" stroke-miterlimit="8" fill="none"/><text font-family="Calibri,Calibri_MSFontService,sans-serif" font-weight="400" font-size="24" transform="translate(426.477 73)">Wiki :  N = 62,329</text><path d="M349.5 155C349.5 138.155 363.603 124.5 381 124.5 398.397 124.5 412.5 138.155 412.5 155 412.5 171.845 398.397 185.5 381 185.5 363.603 185.5 349.5 171.845 349.5 155Z" fill="#4472C4" fill-rule="evenodd"/><path d="M381 124.5 381 185.5M349.5 155 412.5 155" stroke="#2F528F" stroke-width="1.33333" stroke-miterlimit="8" fill="none" fill-rule="evenodd"/><path d="M349.5 155C349.5 138.155 363.603 124.5 381 124.5 398.397 124.5 412.5 138.155 412.5 155 412.5 171.845 398.397 185.5 381 185.5 363.603 185.5 349.5 171.845 349.5 155Z" stroke="#2F528F" stroke-width="1.33333" stroke-miterlimit="8" fill="none" fill-rule="evenodd"/><path d="M0-0.333333 57.7822-0.333333 57.7822 92.9249 57.1155 92.9249 57.1155 0 57.4488 0.333333 0 0.333333ZM61.4488 91.5916 57.4488 99.5916 53.4488 91.5916Z" fill="#4472C4" transform="matrix(1.83697e-16 1 1 -1.83697e-16 249.5 97.5001)"/><path d="M515.691 97.5001 515.691 155.442 419.167 155.442 419.167 154.775 515.358 154.775 515.025 155.109 515.025 97.5001ZM420.5 159.109 412.5 155.109 420.5 151.109Z" fill="#4472C4"/><path d="M0.333323-0.00258957 0.755863 54.3858 0.0892162 54.3909-0.333323 0.00258957ZM4.41206 53.024 0.474331 61.0548-3.5877 53.0861Z" fill="#4472C4" transform="matrix(-1 0 0 1 380.974 185.5)"/><text font-family="Calibri,Calibri_MSFontService,sans-serif" font-weight="400" font-size="24" transform="translate(575.544 190)">345,177 with either: age &lt; 18 or age &gt; 105; face could not be <tspan font-size="24" x="0" y="29">extracted; labels were non</tspan>-<tspan font-size="24" x="265.767" y="29">sensical, missing, or not parsed; </tspan><tspan font-size="24" x="0" y="58">duplicate records; image format other than .jpeg</tspan></text><path d="M380.5 368.167 555.711 368.167 555.711 368.833 380.5 368.833ZM554.378 364.5 562.378 368.5 554.378 372.5Z" fill="#4472C4"/><rect x="561.5" y="333.5" width="410" height="78" stroke="#2F528F" stroke-width="3" stroke-miterlimit="8" fill="none"/><text font-family="Calibri,Calibri_MSFontService,sans-serif" font-weight="400" font-size="24" transform="translate(574.331 476)">Random selection of samples from distribution with <tspan font-size="24" x="0" y="29">rebalancing and  augmentation to achieve roughly uniform </tspan><tspan font-size="24" x="0" y="58">distribution of training set across ages, aiming for 600 </tspan><tspan font-size="24" x="527.853" y="58">–</tspan><tspan font-size="24" x="0" y="87">700 samples per age year</tspan></text></g></svg>